-
http:// www. Speed. Cd       
http:// www. Speed. Cd       the fast  and The Hottest Private Tracker on the net

Please Seed back to make the speed Faster!!!

and don't forget to visit      ...... www. Speed. Cd..........
-[img]http://img20.imageshack.us/img20/7021/bloodoutbr.jpg[/img]

[color=blue][size=5][b]Blood.Out.2011.BDRip.XVID.AC3.HQ.Hive-CM8[/b][/size][/color]



[b]Thx Hive

CM8 Doing It Right The First Time :D

You should wait
For Hive-CM8

Source Bluray

Video: 720x400 @bitrate 1900 2pass
Audio: English DTS to AC3 5.1 @448
Sample: yes included
Subs: yes english in srt /subs[/b]


[url]http://www.imdb.com/title/tt1477675/[/url]


General
Complete name                    : Blood.Out.2011.BDRip.XVID.AC3.HQ.Hive-CM8.avi
Format                           : AVI
Format/Info                      : Audio Video Interleave
File size                        : 1.46 GiB
Duration                         : 1h 28mn
Overall bit rate                 : 2 357 Kbps
Writing application              : Nandub v1.0rc2
Writing library                  : Nandub build 1853/release

Video
ID                               : 0
Format                           : MPEG-4 Visual
Format profile                   : Advanced Simple@L5
Format settings, BVOP            : Yes
Format settings, QPel            : Yes
Format settings, GMC             : No warppoints
Format settings, Matrix          : Default (H.263)
Muxing mode                      : Packed bitstream
Codec ID                         : XVID
Codec ID/Hint                    : XviD
Duration                         : 1h 28mn
Bit rate                         : 1 899 Kbps
Width                            : 720 pixels
Height                           : 400 pixels
Display aspect ratio             : 16:9
Frame rate                       : 23.976 fps
Color space                      : YUV
Chroma subsampling               : 4:2:0
Bit depth                        : 8 bits
Scan type                        : Progressive
Bits/(Pixel*Frame)               : 0.275
Stream size                      : 1.18 GiB (81%)
Writing library                  : XviD 1.2.1 (UTC 2008-12-04)

Audio
ID                               : 1
Format                           : AC-3
Format/Info                      : Audio Coding 3
Mode extension                   : CM (complete main)
Codec ID                         : 2000
Duration                         : 1h 28mn
Bit rate mode                    : Constant
Bit rate                         : 448 Kbps
Channel(s)                       : 6 channels
Channel positions                : Front: L C R, Side: L R, LFE
Sampling rate                    : 48.0 KHz
Bit depth                        : 16 bits
Stream size                      : 284 MiB (19%)
Alignment                        : Split accross interleaves
Interleave, duration             : 42 ms (1.00 video frame)
Interleave, preload duration     : 500 ms


Val Kilmer	 ... 	Arturo
Vinnie Jones	... 	Zed
AnnaLynne McCord	... 	Anya
50 Cent	... 	Hardwick
Luke Goss	... 	Michael
Tamer Hassan	... 	Elias
Ed Quinn	... 	Anthony
Ryan Donowho	... 	David


When big city detectives refuse to further investigate his kid brother's 
gang related murder, small town Sheriff Michael Spencer drops the badge 
and goes undercover to find his brother's killer and avenge his death.  
 

[img]http://img689.imageshack.us/img689/7677/bbll.png[/img]
[img]http://img801.imageshack.us/img801/8522/54694024.png[/img]
[img]http://img20.imageshack.us/img20/4915/bblbblll.png[/img]
[img]http://img40.imageshack.us/img40/6125/bblblbblblblbbllblll.png[/img]
[img]http://img59.imageshack.us/img59/7996/bblblbblblblblblll.png[/img]
[img]http://img808.imageshack.us/img808/9730/bblblbblblblblll.png[/img]
[img]http://img191.imageshack.us/img191/4541/bblblbblblblll.png[/img]
[img]http://img863.imageshack.us/img863/457/bblblbblblll.png[/img]
[img]http://img577.imageshack.us/img577/4097/bblblbblll.png[/img]
[img]http://img860.imageshack.us/img860/4803/bbblll.png[/img]



ViSiON,LUSi,SANTi,MAGNET,THC,T0XiCiNK,LKRG,IMAGiNE,WBZ,FLAWL3SS,NOVA
Vik,Rapeseed,D2U,SAFC,goldadvance,MEMORY100,KaN1vE,Unevano,Pinnz,Wayne,Mr Hive
and all P2P groups 
Great Work Guys :D

CM8@hushmail.com